<svg width="596" height="596" viewBox="0 0 596 596" fill="none" xmlns="http://www.w3.org/2000/svg">
  <path
    d="M223.5 362.567C223.5 368.053 227.947 372.5 233.433 372.5H362.567C368.053 372.5 372.5 368.053 372.5 362.567V233.433C372.5 227.947 368.053 223.5 362.567 223.5H233.433C227.947 223.5 223.5 227.947 223.5 233.433L223.5 362.567Z"
    fill="#84CC16" />
  <path
    d="M14.9 0H447C529.29 0 596 66.7096 596 149V447C596 525.929 534.629 590.525 457.002 595.67C451.491 596.035 447 591.523 447 586V391.125V186.25C447 165.677 430.323 149 409.75 149H9.93333C4.44731 149 0 144.553 0 139.067V14.9C0 6.67094 6.67096 0 14.9 0Z"
    fill="#A3E635" />
  <path
    d="M14.9 596C6.67094 596 0 589.329 0 581.1V233.433C0 227.947 4.4473 223.5 9.93333 223.5H139.067C144.553 223.5 149 227.947 149 233.433V409.75C149 430.323 165.677 447 186.25 447L362.567 447C368.053 447 372.5 451.447 372.5 456.933V586.067C372.5 591.553 368.053 596 362.567 596H14.9Z"
    fill="#A3E635" />
</svg>